<mxfile host="app.diagrams.net" modified="2023-10-02T12:14:41.353Z" agent="Mozilla/5.0 (X11; Linux x86_64) AppleWebKit/537.36 (KHTML, like Gecko) Chrome/117.0.0.0 Safari/537.36" version="22.0.0" etag="Wua7TsNCxEj7o5HV74NM" type="github">
  <diagram name="Page-1" id="7kpa4luSOtVa7Al1tANr">
    <mxGraphModel>
      <root>
        <mxCell id="0" />
        <mxCell id="1" parent="0" />
      </root>
    </mxGraphModel>
  </diagram>
</mxfile>
